PathFileType	4	(X/Y/Z)	C:\Users\WrightLab\Desktop\Jo\P5V17.trc
DataRate	CameraRate	NumFrames	NumMarkers	Units	OrigDataRate	OrigDataStartFrame	OrigNumFrames
100.00	100.00	       22	19	mm	100.00	475	       633
Frame#	Time	Headset_Front			Headset_Back			Headset_Left			Headset_Right			Left_Shoulder			Right_Shoulder			Sternum			C7			Left Elbow			Right Elbow			Left Wrist			Right Wrist			Left ASIS			Right ASIS			S2			Left Knee			Right Knee			Left Ankle			Right Ankle			
		X1	Y1	Z1	X2	Y2	Z2	X3	Y3	Z3	X4	Y4	Z4	X5	Y5	Z5	X6	Y6	Z6	X7	Y7	Z7	X8	Y8	Z8	X9	Y9	Z9	X10	Y10	Z10	X11	Y11	Z11	X12	Y12	Z12	X13	Y13	Z13	X14	Y14	Z14	X15	Y15	Z15	X16	Y16	Z16	X17	Y17	Z17	X18	Y18	Z18	X19	Y19	Z19	

475	4.740	-9.46057	1587.24487	1802.89404	160.40324	1707.88452	1837.01282							359.34509	1537.35718	1851.70227	311.09686	1546.52087	1614.34595	138.44597	1366.62061	1761.50793				450.22641	1277.03894	1920.99023	109.26893	1241.92615	1406.12598	257.36310	1285.89917	2018.29480	-51.63631	1160.17346	1557.81384	230.48900	971.35101	1879.90051	52.81950	988.55182	1652.41467	399.95920	997.50574	1617.94141	353.49518	536.61694	1808.69922	57.07551	558.38916	1767.57837	518.96796	166.20659	1612.12769	120.75224	135.22694	1854.23254	
476	4.750	-15.75844	1586.13245	1806.34363	154.31483	1706.38403	1840.71021							352.83640	1535.97424	1857.82410	305.66238	1543.84692	1619.55884	131.98930	1364.11035	1765.85046				442.35349	1276.65283	1929.56042	105.11794	1239.29407	1411.20862	249.14188	1284.81226	2024.32874	-56.62145	1158.60535	1562.61560	222.54977	969.91840	1887.24341	46.70856	986.41406	1658.32556	394.54016	994.11340	1626.94214	346.36105	533.74121	1818.98694	57.95607	554.05847	1774.53271	517.65649	169.88023	1615.49463				
477	4.760	-21.92933	1584.73389	1808.23743	148.19434	1704.35303	1843.69531							346.25824	1533.58948	1863.22083	300.78574	1540.54016	1624.56189	126.10011	1363.31091	1771.60071				435.40829	1274.91565	1937.32776	100.95924	1236.35217	1417.13379	240.68762	1283.82727	2029.83948	-61.92612	1157.17859	1566.58740	214.66484	969.29736	1896.34155	40.86951	984.08221	1666.13245	389.10464	990.87372	1636.07495	338.48846	531.76379	1831.14746	53.61327	551.81323	1780.00317	516.78162	173.99126	1619.48218	117.59619	135.26526	1861.07715	
478	4.770	-28.22101	1583.89221	1810.88843	142.50330	1703.62085	1847.70020							339.74246	1532.47375	1869.11963	295.03082	1538.08130	1629.44507	119.64991	1361.52368	1775.31824				428.12546	1273.21570	1943.69495	96.42059	1233.80005	1420.70410	232.50180	1283.60510	2035.15100	-66.87141	1155.29895	1571.25378	206.09328	967.42236	1903.66772	35.10133	982.16394	1671.82043	383.75131	986.60748	1646.52881	331.05746	529.42346	1844.08618	47.83632	549.48737	1786.04700	515.67505	178.00941	1623.72766	118.08642	134.33557	1865.17493	
479	4.780	-34.99343	1583.74805	1813.31238	135.66345	1703.15417	1852.34814							333.67044	1531.27808	1873.68079	290.58121	1536.02405	1634.73706	113.58127	1360.65161	1780.96155				420.49402	1272.69861	1952.52332	92.33273	1231.03455	1425.38293	224.57800	1282.56653	2040.53613	-72.25977	1152.59900	1577.00342	198.43375	967.00360	1911.01160	29.27880	980.17444	1679.17041				323.97601	526.11401	1856.20422	42.36605	547.07861	1792.48657	513.92407	183.85558	1629.93469	116.71010	135.35336	1864.10950	
480	4.790	-41.39228	1583.34961	1816.11853	128.71695	1703.52332	1855.48535							327.75412	1531.13147	1880.04773	285.66864	1535.49036	1639.73792	107.89076	1360.44226	1785.94763				412.67651	1272.24255	1959.75049	88.27814	1228.76086	1430.10706	216.26926	1282.12451	2046.76770	-77.19865	1151.83789	1578.68066	189.63005	966.87659	1918.02002	23.49260	979.40387	1685.71362	372.29779	982.79980	1666.31042	316.65607	523.19202	1869.74585	37.28911	544.42950	1799.88770	512.28461	190.93069	1638.15588				
481	4.800	-47.51459	1583.47986	1818.04126	121.85992	1703.54858	1858.82104							321.98959	1531.83850	1885.53162	280.80914	1534.44495	1645.00610	102.48305	1361.63428	1791.17004				405.76797	1271.63525	1965.75098	84.16356	1226.86084	1435.35901	208.02350	1281.80542	2052.37012	-82.85220	1150.36462	1582.34436	180.65599	967.79858	1925.15234	18.11686	980.01917	1691.09155	366.51794	981.05695	1677.23657	308.23410	521.21899	1885.53894	32.77261	542.42749	1806.82800	508.44482	198.04422	1645.67798				
482	4.810	-53.27643	1583.05725	1820.28650	115.01305	1704.42371	1862.59045							316.29227	1532.74646	1890.78613	276.27805	1534.60132	1650.46167	97.12519	1361.55774	1794.92993				397.39572	1272.14075	1972.30713	80.39142	1226.12134	1439.56201	199.34239	1281.64771	2057.84741	-87.31062	1149.00928	1586.55493	171.62827	969.08990	1931.68018	13.33756	980.20837	1698.51270	360.26480	980.31873	1686.00256	298.75198	519.91748	1901.55249	27.29298	544.01135	1811.72766	503.63342	204.89629	1655.13379	113.85993	137.58638	1865.53650	
483	4.820	-58.75177	1583.29138	1822.73938	108.62120	1704.73035	1867.87646							310.33313	1534.16992	1897.17371				91.14822	1362.36450	1799.76550				389.66382	1273.21851	1979.19885	77.21677	1225.37512	1445.70715	190.86148	1282.14185	2062.28931	-92.27940	1147.95532	1590.59094	162.32288	970.74115	1939.24182	8.38604	981.25183	1704.75781	354.18781	980.14221	1695.82288	287.32712	519.72412	1919.77856	20.06169	546.77344	1813.29980	498.70709	212.69366	1669.61072	113.61221	137.49637	1865.90942	
484	4.830	-64.44427	1583.74036	1825.17896	102.53222	1705.12695	1871.18115							303.40082	1535.52258	1902.99170				85.36082	1363.54565	1804.49719				382.14603	1273.47754	1984.65039	74.26498	1225.19519	1451.89795	182.08441	1282.08459	2066.98438	-96.48909	1147.17493	1594.56360	154.07838	971.91962	1945.23413	3.71119	982.11047	1710.40588	347.94211	979.71576	1703.22876	275.23511	519.64557	1937.05493	13.16548	549.45160	1817.19336	492.93484	220.28720	1684.89258	113.08054	137.13361	1866.71326	
485	4.840	-69.73605	1583.51563	1826.80347	96.65273	1705.06311	1873.78027							296.58926	1536.64209	1909.98340				78.74703	1364.21802	1807.99243				374.45630	1274.77637	1991.71204	71.84106	1224.87036	1457.82996	173.82614	1282.33313	2071.16577	-100.33857	1146.99231	1597.98035	145.34877	974.37292	1952.14563	-0.68674	982.67340	1716.71204	342.04779	980.36536	1713.21863	262.33038	519.65796	1953.69507	6.12040	552.46820	1819.41016	486.73669	226.76219	1698.62170	112.69274	136.96129	1867.29761	
486	4.850				90.42395	1705.82117	1878.02039							290.09528	1537.23242	1914.80042				72.72293	1364.51733	1812.15479				367.73419	1274.33167	1997.20703	69.63992	1224.29993	1462.73987	165.29938	1282.05994	2075.48853	-104.24184	1146.91028	1601.05774	136.61902	975.28149	1958.23145	-4.75456	983.69983	1722.08252	335.94516	981.30316	1718.83923	249.37483	521.80011	1971.01575	-1.11541	554.65448	1824.41150	480.45313	234.03061	1713.60425	112.54827	137.05577	1867.51160	
487	4.860				84.74238	1707.30530	1881.21472							282.72449	1538.61816	1922.51855				66.91865	1365.82043	1816.67053				360.05356	1276.05823	2005.00256	67.73127	1223.87781	1465.99109	157.19571	1282.92615	2079.62036	-107.71388	1147.08093	1604.26355	128.81859	976.45831	1963.49390	-8.87273	983.58728	1727.20264	330.59180	981.77307	1727.79651	234.84508	522.70441	1987.47754	-7.73841	555.37274	1827.13159	474.23486	242.11562	1727.59314	112.28925	136.93526	1867.90198	
488	4.870				78.22497	1708.31531	1884.89441							275.95306	1539.69409	1927.62378				61.39622	1365.61072	1819.28760				353.50595	1275.75061	2009.70935	66.14913	1223.45117	1470.21521	148.69115	1282.71619	2083.95142	-110.99406	1147.12207	1608.41797	121.39761	978.05371	1970.78540	-13.14596	984.27960	1730.37671	324.68790	983.33081	1732.14612	221.77423	524.70575	2002.91675	-14.02571	555.72504	1828.57996	467.25125	251.02058	1741.01929	112.08180	136.87091	1868.21375	
489	4.880	-92.64465	1588.01501	1834.41553	72.30462	1709.20911	1887.39600							269.66946	1540.55920	1934.04114				56.80419	1367.08740	1824.48169				345.82709	1277.28088	2017.73071	65.06909	1223.43311	1474.37598	140.50897	1282.98779	2088.30078	-114.20184	1147.54456	1609.64368	114.51570	978.97528	1975.77332	-17.04216	984.88281	1734.05945	319.79294	983.82599	1741.28906	207.83073	527.68237	2018.20959	-20.28603	555.76526	1829.38318	461.11801	260.10065	1756.23364	111.67615	138.55190	1865.68042	
490	4.890	-97.71756	1589.34595	1835.27466	66.53112	1710.52087	1890.76843							262.87982	1541.41760	1939.19397				51.82005	1367.64148	1827.05945				338.16977	1277.69836	2023.56433	63.91434	1223.76843	1478.53479	132.17546	1283.49976	2092.01294	-116.73505	1148.10120	1612.27124	107.83331	980.20575	1981.90320	-21.23117	985.31262	1736.27466	313.89035	985.69696	1745.14600	194.69724	530.03284	2031.71411	-26.21912	555.21368	1830.96240	454.62897	268.68661	1772.05261	111.61363	138.54851	1865.77393	
491	4.900	-103.13932	1590.54370	1836.90662	60.68568	1712.10144	1894.21350							256.02502	1543.29236	1946.53040				47.36776	1369.05627	1832.11877				330.79547	1278.65210	2030.54333	62.89883	1224.08838	1483.27283	123.32437	1284.26868	2095.83423	-119.53822	1149.04578	1614.78540	101.80238	981.45856	1986.75427	-25.14423	985.56097	1739.42371	309.28244	986.61896	1752.60193	182.12436	533.31274	2043.64001	-31.55978	554.66290	1831.10742	447.29062	275.63800	1787.70752	111.76828	138.75275	1865.53796	
492	4.910	-108.57154	1591.90686	1838.31592	54.63163	1713.47461	1896.92273							249.30815	1544.57935	1951.46033				42.27285	1369.59094	1835.10327				322.74503	1280.03931	2037.62463	61.82241	1224.30579	1487.83691	114.95634	1284.79761	2099.18799	-121.71668	1149.65857	1617.66162	95.45626	982.49030	1992.31665	-29.32014	986.52466	1741.64001	306.56833	988.28662	1755.73511	170.16342	537.17255	2056.12866	-36.50495	554.34509	1830.02332	439.57001	280.99057	1800.42542	111.76635	138.84410	1865.53882	
493	4.920	-113.72353	1593.09802	1838.45630	48.49774	1714.75342	1899.79382							242.71925	1546.41150	1958.83691				37.61498	1371.41943	1839.07373				314.52640	1281.27283	2043.05835	60.77291	1225.31006	1491.93054	106.14497	1285.30322	2102.48047	-124.13925	1150.42627	1619.82410	89.38954	984.78760	1998.03979	-33.57848	987.59741	1743.91931	301.43292	989.86908	1763.13684	159.00844	542.74731	2068.72510	-40.82806	553.93353	1828.01001	432.32776	286.95313	1815.39990	111.83634	139.02882	1865.42993	
494	4.930	-119.22589	1594.69067	1839.99207	42.70366	1716.23621	1902.44727							235.70988	1547.89917	1963.65747				32.44438	1371.58850	1840.30249				306.82349	1282.44360	2049.68188	60.86798	1225.31995	1495.27698	97.59774	1285.87317	2105.40674	-125.84145	1151.22412	1622.08545	82.92681	985.51672	2002.20068	-37.97789	988.60974	1744.54871	295.73138	991.72748	1770.54700	147.29413	547.14050	2079.46924	-45.58915	553.27673	1826.01782	423.01871	292.38055	1830.30383	111.76020	139.07851	1865.54260	
495	4.940	-123.65298	1595.94421	1840.14954	37.10548	1717.96777	1905.69568							228.80481	1549.61499	1971.13074				27.67522	1373.20850	1844.74792				299.18951	1282.72180	2055.04150	60.28143	1226.40576	1499.87427	89.20896	1286.97815	2109.01172	-127.69430	1151.19214	1623.29468	77.56860	987.09100	2006.90576	-42.00426	989.59479	1746.62073	290.72546	993.48065	1778.86572	136.87852	551.53473	2088.35449	-48.44489	552.35266	1822.46643	414.43146	295.88620	1844.73975	111.74437	139.18553	1865.56372	
496	4.950	-128.62558	1597.57898	1841.39221	30.84402	1719.66040	1908.64099							221.53801	1551.25500	1976.08740				22.44191	1374.55957	1846.96863				290.63046	1283.84387	2060.08154	60.23029	1227.28821	1503.45923	80.68906	1288.84290	2112.43359	-129.05276	1153.45593	1626.28247	71.11845	988.44635	2010.60583	-46.18385	991.17480	1747.43542	285.34409	995.26056	1787.59839	126.87821	555.40472	2097.66382	-51.81399	551.29547	1818.95361	405.05698	298.68195	1860.50513	111.61538	139.12483	1865.75793	
